# xmcd
#
# Track frame offsets: 
#        187
#        21524
#        40312
#        58637
#        74912
#        95512
#        109674
#        127049
#        149424
#        166962
#        185699
#        201824
#        222187
#        241499
#        264037
#        290474
#
# Disc length: 4107 seconds
#
# Revision: 3
# Processed by: cddbd v1.5.2PL0 Copyright (c) Steve Scherf et al.
# Submitted via: ExactAudioCopy v1.0b3
#
DISCID=fc100910
DTITLE=サザンオールスターズ - HAPPY! TWO [Disc 2]
DYEAR=1900
DGENRE=JPop
TTITLE0=涙のキッス
TTITLE1=匂艶 THE NIGHT CLUB
TTITLE2=ゆけ!! 力道山
TTITLE3=フリフリ'65
TTITLE4=C調言葉に御用心
TTITLE5=忘れられた BIG WAVE
TTITLE6=ニッポンのヒール
TTITLE7=ミス・ブランニュー・デイ (MISS BRAND-NEW DAY)
TTITLE8=鎌倉物語
TTITLE9=BROWN CHERRY
TTITLE10=チャコの海岸物語
TTITLE11=YOU
TTITLE12=最後の日射病
TTITLE13=東京サリーちゃん
TTITLE14=クリスマス・ラブ (涙の後には白い雪が降る)
TTITLE15=Ya Ya (あの時代を忘れない)
EXTD=
EXTT0=
EXTT1=
EXTT2=
EXTT3=
EXTT4=
EXTT5=
EXTT6=
EXTT7=
EXTT8=
EXTT9=
EXTT10=
EXTT11=
EXTT12=
EXTT13=
EXTT14=
EXTT15=
PLAYORDER=
